<svg width="143" height="36" viewBox="0 0 143 36" fill="none" xmlns="http://www.w3.org/2000/svg">
<path d="M58.8906 15.0142H53.9787C54.0052 14.4972 53.9555 14.0365 53.8295 13.6321C53.7036 13.2211 53.5047 12.8698 53.233 12.5781C52.9612 12.2798 52.6231 12.0545 52.2188 11.902C51.8144 11.7495 51.3438 11.6733 50.8068 11.6733C49.7794 11.6733 48.848 11.9285 48.0128 12.4389C47.1776 12.9493 46.4782 13.6851 45.9148 14.6463C45.3513 15.6075 44.9569 16.7609 44.7315 18.1065C44.526 19.4058 44.5294 20.4896 44.7415 21.358C44.9602 22.2263 45.3646 22.8793 45.9545 23.3168C46.5445 23.7476 47.2936 23.9631 48.2017 23.9631C48.7917 23.9631 49.3385 23.8935 49.8423 23.7543C50.3527 23.6084 50.8134 23.3996 51.2244 23.1278C51.6354 22.8561 51.9901 22.5279 52.2884 22.1435C52.5933 21.7524 52.8286 21.3182 52.9943 20.8409H57.946C57.7008 21.7358 57.2964 22.6274 56.733 23.5156C56.1761 24.3973 55.4735 25.196 54.625 25.9119C53.7765 26.6278 52.7921 27.2012 51.6719 27.6321C50.5516 28.063 49.3054 28.2784 47.9332 28.2784C46.0573 28.2784 44.4399 27.8575 43.081 27.0156C41.7287 26.1738 40.7509 24.9541 40.1477 23.3565C39.5511 21.7524 39.4384 19.8101 39.8097 17.5298C40.1742 15.3224 40.8935 13.4631 41.9673 11.9517C43.0478 10.4403 44.3603 9.29688 45.9048 8.52131C47.456 7.74574 49.1098 7.35795 50.8665 7.35795C52.1392 7.35795 53.2827 7.5303 54.2969 7.875C55.3177 8.21307 56.1828 8.71023 56.892 9.36648C57.6013 10.0161 58.1283 10.8149 58.473 11.7628C58.8243 12.7107 58.9635 13.7945 58.8906 15.0142ZM66.4121 7.63636L63.0315 28H58.1692L61.5499 7.63636H66.4121ZM64.7263 28L67.2717 12.7273H72.134L69.5885 28H64.7263ZM70.0459 10.9375C69.3565 10.9375 68.7964 10.7088 68.3655 10.2514C67.9346 9.79403 67.7656 9.24716 67.8584 8.61079C67.9512 7.9678 68.276 7.42093 68.8328 6.97017C69.3896 6.51941 70.0094 6.29403 70.6922 6.29403C71.3816 6.29403 71.9351 6.51941 72.3527 6.97017C72.7769 7.42093 72.9427 7.9678 72.8499 8.61079C72.7703 9.24716 72.4521 9.79403 71.8953 10.2514C71.3451 10.7088 70.7286 10.9375 70.0459 10.9375ZM77.6271 19.2898L76.1754 28H71.3131L73.8586 12.7273H78.4822L78.0248 15.5312H78.1938C78.6711 14.5966 79.3638 13.8641 80.2719 13.3338C81.1801 12.7969 82.2009 12.5284 83.3344 12.5284C84.4017 12.5284 85.2933 12.767 86.0092 13.2443C86.7251 13.7216 87.2322 14.3911 87.5305 15.2528C87.8288 16.108 87.8785 17.1122 87.6796 18.2656L86.0489 28H81.1867L82.6484 19.2202C82.7942 18.3783 82.6915 17.7187 82.3401 17.2415C81.9954 16.7576 81.432 16.5156 80.6498 16.5156C80.1394 16.5156 79.672 16.6283 79.2478 16.8537C78.8302 17.0724 78.4789 17.3873 78.1938 17.7983C77.9154 18.2093 77.7265 18.7064 77.6271 19.2898ZM87.6294 28L90.1749 12.7273H95.0371L92.4916 28H87.6294ZM92.949 10.9375C92.2596 10.9375 91.6995 10.7088 91.2686 10.2514C90.8377 9.79403 90.6687 9.24716 90.7615 8.61079C90.8543 7.9678 91.1791 7.42093 91.7359 6.97017C92.2928 6.51941 92.9125 6.29403 93.5953 6.29403C94.2847 6.29403 94.8382 6.51941 95.2558 6.97017C95.6801 7.42093 95.8458 7.9678 95.753 8.61079C95.6734 9.24716 95.3553 9.79403 94.7984 10.2514C94.2482 10.7088 93.6318 10.9375 92.949 10.9375ZM101.276 28.2884C99.6651 28.2884 98.3361 27.9569 97.2887 27.294C96.248 26.6312 95.5188 25.7098 95.1012 24.5298C94.6836 23.3433 94.6074 21.9711 94.8725 20.4134C95.1244 18.849 95.658 17.4768 96.4734 16.2969C97.2887 15.1103 98.3294 14.1856 99.5955 13.5227C100.862 12.8598 102.293 12.5284 103.891 12.5284C105.303 12.5284 106.489 12.7836 107.451 13.294C108.418 13.8045 109.118 14.527 109.549 15.4616C109.986 16.3897 110.115 17.4801 109.936 18.733H105.392C105.432 17.9574 105.273 17.3475 104.915 16.9034C104.557 16.4527 104.037 16.2273 103.354 16.2273C102.777 16.2273 102.247 16.3864 101.763 16.7045C101.286 17.0161 100.878 17.4801 100.54 18.0966C100.209 18.7064 99.9701 19.4621 99.8242 20.3636C99.6784 21.2652 99.6684 22.0275 99.7944 22.6506C99.927 23.267 100.176 23.7344 100.54 24.0526C100.911 24.3641 101.382 24.5199 101.952 24.5199C102.403 24.5199 102.82 24.4238 103.205 24.2315C103.589 24.0393 103.924 23.7576 104.209 23.3864C104.494 23.0085 104.716 22.5511 104.875 22.0142H109.409C109.151 23.2803 108.65 24.384 107.908 25.3253C107.172 26.2599 106.241 26.9891 105.114 27.5128C103.987 28.0298 102.708 28.2884 101.276 28.2884ZM118.514 28H113.224L123.476 7.63636H130.028L133.518 28H128.228L125.991 12.767H125.832L118.514 28ZM119.15 19.9858H130.207L129.571 23.7244H118.514L119.15 19.9858ZM142.613 7.63636L139.233 28H134.311L137.691 7.63636H142.613Z" fill="#1DA68F"/>
<rect width="23" height="23" transform="translate(1 6)" fill="white"/>
<path d="M4.4502 5.5C4.88762 5.5001 5.30689 5.67411 5.61621 5.9834C5.92563 6.29284 6.09961 6.71279 6.09961 7.15039C6.09951 7.58785 5.92554 8.00706 5.61621 8.31641C5.30688 8.62576 4.88766 8.79971 4.4502 8.7998H3.7998V14.0498C3.7998 15.1372 4.23212 16.1803 5.00098 16.9492C5.76976 17.7179 6.81227 18.1503 7.89941 18.1504C8.98673 18.1504 10.03 17.7181 10.7988 16.9492C11.5676 16.1803 11.999 15.1372 11.999 14.0498V8.7998H11.3496C10.912 8.7998 10.492 8.62584 10.1826 8.31641C9.87344 8.00708 9.69932 7.58774 9.69922 7.15039C9.69922 6.71286 9.87328 6.29282 10.1826 5.9834C10.492 5.67396 10.912 5.5 11.3496 5.5H12.499C13.2416 5.5 13.9544 5.79521 14.4795 6.32031C15.0044 6.84535 15.2988 7.55738 15.2988 8.2998V14.0498C15.2991 15.7987 14.6805 17.4913 13.5518 18.8271C12.5147 20.0544 11.1086 20.906 9.5498 21.2627V21.5254C9.54991 22.7651 10.0424 23.9544 10.9189 24.8311C11.7956 25.7076 12.9849 26.2002 14.2246 26.2002C15.4643 26.2001 16.6537 25.7077 17.5303 24.8311C18.4068 23.9544 18.8993 22.7651 18.8994 21.5254V19.9404C18.167 19.6039 17.5524 19.0497 17.1416 18.3496C16.67 17.5457 16.4977 16.6012 16.6553 15.6826C16.8128 14.7641 17.2896 13.9308 18.002 13.3301C18.7145 12.7293 19.6168 12.3995 20.5488 12.3994C21.4809 12.3994 22.3831 12.7293 23.0957 13.3301C23.8082 13.9309 24.2858 14.764 24.4434 15.6826C24.6009 16.6011 24.4285 17.5458 23.957 18.3496C23.5464 19.0495 22.9312 19.6029 22.1992 19.9395V21.5254C22.1991 23.6403 21.3587 25.6686 19.8633 27.1641C18.3678 28.6596 16.3395 29.4999 14.2246 29.5C12.1096 29.5 10.0805 28.6597 8.58496 27.1641C7.0897 25.6686 6.2501 23.6402 6.25 21.5254V21.2627C4.69106 20.9061 3.28516 20.0545 2.24805 18.8271C1.11925 17.4913 0.499732 15.7988 0.5 14.0498V8.2998C0.500052 7.55728 0.795281 6.84537 1.32031 6.32031C1.84537 5.79524 2.55726 5.50002 3.2998 5.5H4.4502ZM20.5488 15.7002C20.3766 15.7002 20.2117 15.7688 20.0898 15.8906C19.968 16.0124 19.8995 16.1774 19.8994 16.3496C19.8994 16.522 19.968 16.6877 20.0898 16.8096C20.2117 16.9313 20.3766 17 20.5488 17C20.7212 17 20.8869 16.9315 21.0088 16.8096C21.1306 16.6877 21.1992 16.5219 21.1992 16.3496C21.1991 16.1775 21.1304 16.0124 21.0088 15.8906C20.8869 15.7687 20.7212 15.7002 20.5488 15.7002Z" fill="#1DA68F" stroke="white"/>
</svg>
